<svg width="24" height="24" viewBox="0 0 24 24" fill="none" xmlns="http://www.w3.org/2000/svg">
<path opacity="0.4" d="M21.4697 12C21.4697 17.2467 17.2164 21.5 11.9697 21.5C6.72302 21.5 2.46973 17.2467 2.46973 12C2.46973 6.75329 6.72302 2.5 11.9697 2.5C17.2164 2.5 21.4697 6.75329 21.4697 12Z" stroke="#257CFF"/>
<path d="M14.9704 10.2291L12.0704 8.55914C11.3504 8.13914 10.4804 8.13914 9.76035 8.55914C9.04035 8.97914 8.61035 9.71914 8.61035 10.5591V13.9091C8.61035 14.7391 9.04035 15.4891 9.76035 15.9091C10.1204 16.1191 10.5204 16.2191 10.9104 16.2191C11.3104 16.2191 11.7004 16.1191 12.0604 15.9091L14.9604 14.2391C15.6804 13.8191 16.1104 13.0791 16.1104 12.2391C16.1304 11.3991 15.7004 10.6491 14.9704 10.2291Z" fill="#257CFF"/>
</svg>
