<svg width="34" height="28" viewBox="0 0 34 28" fill="none" xmlns="http://www.w3.org/2000/svg">
<path d="M3.15206 4.48602C5.49039 1.95102 9.02872 0.666016 13.6671 0.666016H15.3337V5.36435L13.9937 5.63268C11.7104 6.08935 10.1221 6.98768 9.27206 8.30602C8.82854 9.01623 8.57701 9.82942 8.54206 10.666H13.6671C14.1091 10.666 14.533 10.8416 14.8456 11.1542C15.1581 11.4667 15.3337 11.8907 15.3337 12.3327V23.9993C15.3337 25.8377 13.8387 27.3327 12.0004 27.3327H2.00039C1.55836 27.3327 1.13444 27.1571 0.821877 26.8445C0.509317 26.532 0.333722 26.108 0.333722 25.666V17.3327L0.338722 12.4677C0.323722 12.2827 0.00705522 7.89935 3.15206 4.48602ZM30.3337 27.3327H20.3337C19.8917 27.3327 19.4678 27.1571 19.1552 26.8445C18.8427 26.532 18.6671 26.108 18.6671 25.666V17.3327L18.6721 12.4677C18.6571 12.2827 18.3404 7.89935 21.4854 4.48602C23.8237 1.95102 27.3621 0.666016 32.0004 0.666016H33.6671V5.36435L32.3271 5.63268C30.0437 6.08935 28.4554 6.98768 27.6054 8.30602C27.1619 9.01623 26.9103 9.82942 26.8754 10.666H32.0004C32.4424 10.666 32.8663 10.8416 33.1789 11.1542C33.4915 11.4667 33.6671 11.8907 33.6671 12.3327V23.9993C33.6671 25.8377 32.1721 27.3327 30.3337 27.3327Z" fill="#257CFF"/>
</svg>
